<?xml version="1.0" encoding="UTF-8" standalone="no"?>
<!DOCTYPE svg PUBLIC "-//W3C//DTD SVG 1.1//EN" "http://www.w3.org/Graphics/SVG/1.1/DTD/svg11.dtd">
<svg width="100%" height="100%" viewBox="0 0 1920 1080" version="1.1" xmlns="http://www.w3.org/2000/svg" xmlns:xlink="http://www.w3.org/1999/xlink" xml:space="preserve" xmlns:serif="http://www.serif.com/" style="fill-rule:evenodd;clip-rule:evenodd;stroke-linecap:round;stroke-linejoin:round;stroke-miterlimit:1.5;">
    <g transform="matrix(1,0,0,1,-1.73146,-70.9899)">
        <path d="M1331.78,672.751C1285.93,837.167 1128.22,958.49 940.947,958.49C753.671,958.49 595.965,837.166 550.111,672.749L762.992,675.224C697.899,645.651 652.694,608.769 627.867,564.396C620.775,552.36 615.31,539.25 611.777,525.371C608.75,513.48 607.141,501.024 607.141,488.194C607.141,405.247 674.406,337.904 757.259,337.904C817.934,337.904 870.25,374.02 893.909,425.933C905.509,405.319 920.937,392.759 935.407,392.759C952.924,392.759 970.727,411.034 982.153,439.807C1002.29,380.568 1058.36,337.904 1124.31,337.904C1207.16,337.904 1274.42,405.247 1274.42,488.194C1274.42,500.746 1272.88,512.941 1269.98,524.598C1266,540.587 1259.46,555.567 1250.83,569.074C1225.49,611.225 1181.37,646.414 1118.91,674.802L1331.78,672.751Z" style="fill:white;"/>
    </g>
    <g transform="matrix(1.07836,0,0,1.13021,-159.334,-25.7872)">
        <ellipse cx="848.383" cy="391.956" rx="139.209" ry="132.976" style="fill:white;"/>
    </g>
    <g transform="matrix(0.542007,0,0,0.565302,291.032,200.75)">
        <ellipse cx="848.383" cy="391.956" rx="139.209" ry="132.976" style="stroke:black;stroke-width:3.61px;"/>
    </g>
    <g transform="matrix(-1.07836,0,0,1.13021,2037.44,-25.7872)">
        <ellipse cx="848.383" cy="391.956" rx="139.209" ry="132.976" style="fill:white;"/>
    </g>
    <path d="M933.675,321.769C965.784,321.769 998.85,383.169 991.852,458.069C985.051,530.856 954.241,590.962 933.675,594.37C915.318,597.411 886.051,531.097 875.498,458.069C864.739,383.616 901.566,321.769 933.675,321.769Z" style="fill:rgb(255,138,7);stroke:rgb(255,138,7);stroke-width:2px;"/>
    <g transform="matrix(-0.162509,-0.0109476,0.0464218,-0.689098,1229.45,1089.26)">
        <path d="M933.675,321.769C965.784,321.769 998.85,383.169 991.852,458.069C985.051,530.856 948.599,579.815 933.675,594.37C930.286,597.675 913.306,531.578 875.498,458.069C841.091,391.173 901.566,321.769 933.675,321.769Z" style="fill:rgb(255,138,7);stroke:rgb(255,138,7);stroke-width:3.99px;"/>
    </g>
    <g transform="matrix(-0.146009,0.0721831,-0.306082,-0.619132,1328.53,988.485)">
        <path d="M933.675,321.769C965.784,321.769 998.85,383.169 991.852,458.069C985.051,530.856 948.599,579.815 933.675,594.37C930.286,597.675 913.306,531.578 875.498,458.069C841.091,391.173 901.566,321.769 933.675,321.769Z" style="fill:rgb(255,138,7);stroke:rgb(255,138,7);stroke-width:3.99px;"/>
    </g>
    <g transform="matrix(-0.0990798,0.129276,-0.548177,-0.420134,1362.93,870.944)">
        <path d="M933.675,321.769C965.784,321.769 998.85,383.169 991.852,458.069C985.051,530.856 948.599,579.815 933.675,594.37C930.286,597.675 913.306,531.578 875.498,458.069C841.091,391.173 901.566,321.769 933.675,321.769Z" style="fill:rgb(255,138,7);stroke:rgb(255,138,7);stroke-width:3.99px;"/>
    </g>
    <g transform="matrix(0.162509,-0.0109476,-0.0464218,-0.689098,647.863,1089.26)">
        <path d="M933.675,321.769C965.784,321.769 998.85,383.169 991.852,458.069C985.051,530.856 948.599,579.815 933.675,594.37C930.286,597.675 913.306,531.578 875.498,458.069C841.091,391.173 901.566,321.769 933.675,321.769Z" style="fill:rgb(255,138,7);stroke:rgb(255,138,7);stroke-width:3.99px;"/>
    </g>
    <g transform="matrix(0.146009,0.0721831,0.306082,-0.619132,548.79,988.485)">
        <path d="M933.675,321.769C965.784,321.769 998.85,383.169 991.852,458.069C985.051,530.856 948.599,579.815 933.675,594.37C930.286,597.675 913.306,531.578 875.498,458.069C841.091,391.173 901.566,321.769 933.675,321.769Z" style="fill:rgb(255,138,7);stroke:rgb(255,138,7);stroke-width:3.99px;"/>
    </g>
    <g transform="matrix(0.0990798,0.129276,0.548177,-0.420134,514.385,870.944)">
        <path d="M933.675,321.769C965.784,321.769 998.85,383.169 991.852,458.069C985.051,530.856 948.599,579.815 933.675,594.37C930.286,597.675 913.306,531.578 875.498,458.069C841.091,391.173 901.566,321.769 933.675,321.769Z" style="fill:rgb(255,138,7);stroke:rgb(255,138,7);stroke-width:3.99px;"/>
    </g>
    <g transform="matrix(0.542007,0,0,0.565302,656.032,200.75)">
        <ellipse cx="848.383" cy="391.956" rx="139.209" ry="132.976" style="stroke:black;stroke-width:3.61px;"/>
    </g>
    <path d="M548.372,601.732C539.596,570.256 534.919,537.201 534.919,503.116C534.919,290.968 716.078,118.732 939.215,118.732C1162.35,118.732 1343.51,290.968 1343.51,503.116C1343.51,537.103 1338.86,570.066 1330.13,601.46C1330.11,601.56 1330.08,601.661 1330.05,601.761L1117.18,603.812C1179.64,575.424 1223.76,540.235 1249.09,498.084C1257.73,484.577 1264.27,469.597 1268.25,453.609C1271.15,441.951 1272.69,429.756 1272.69,417.205C1272.69,334.257 1205.43,266.914 1122.58,266.914C1056.63,266.914 1000.56,309.578 980.421,368.817C968.995,340.044 951.193,321.769 933.675,321.769C919.205,321.769 903.777,334.329 892.178,354.943C868.518,303.031 816.202,266.914 755.527,266.914C672.675,266.914 605.41,334.257 605.41,417.205C605.41,430.034 607.019,442.49 610.046,454.381C613.579,468.26 619.043,481.37 626.135,493.406C650.962,537.779 696.168,574.661 761.26,604.234L548.379,601.759C548.377,601.75 548.374,601.741 548.372,601.732Z" style="fill:rgb(189,75,14);"/>
</svg>
